<?xml version="1.0" encoding="utf-8"?>
<!-- Generator: Adobe Illustrator 16.0.0, SVG Export Plug-In . SVG Version: 6.00 Build 0)  -->
<!DOCTYPE svg PUBLIC "-//W3C//DTD SVG 1.1//EN" "http://www.w3.org/Graphics/SVG/1.1/DTD/svg11.dtd">
<svg version="1.1" id="Layer_1" xmlns="http://www.w3.org/2000/svg" xmlns:xlink="http://www.w3.org/1999/xlink" x="0px" y="0px"
	 width="100.108px" height="100.145px" viewBox="0 0 100.108 100.145" enable-background="new 0 0 100.108 100.145"
	 xml:space="preserve">
<g>
	<polygon fill="#0F1317" points="0.029,0 100.108,0 100.108,100.145 0,100.145 0,81.499 3.193,81.499 3.193,96.848 96.832,96.848 
		96.832,3.313 3.193,3.313 3.193,59.495 0.029,59.495 	"/>
	<polygon fill="#0F1317" points="3.193,63.86 3.193,69.191 7.1,69.191 11.178,63.837 14.56,63.837 9.631,70.558 17.894,81.507 
		14.533,81.507 7.033,71.968 3.193,71.968 3.193,77.21 0.021,77.21 0.021,63.86 	"/>
	<path fill="#0F1317" d="M20.206,77.21H16.98V63.86h9.184c0.688,0,1.33,0.142,1.928,0.426c0.597,0.283,1.119,0.723,1.567,1.321
		c0.478,0.567,0.829,1.166,1.054,1.792c0.223,0.628,0.336,1.277,0.336,1.949l-0.023,0.022h0.045c0,0.672-0.107,1.322-0.324,1.949
		s-0.564,1.232-1.042,1.814c-0.493,0.583-1.038,1.024-1.636,1.322l2.084,2.755h-3.495l-1.747-2.352h-4.704V77.21z M24.799,72.193
		c0.552,0,1.011-0.056,1.377-0.168c0.365-0.112,0.661-0.28,0.885-0.504c0.225-0.224,0.393-0.507,0.504-0.851
		c0.112-0.343,0.19-0.753,0.235-1.232c-0.03-0.358-0.097-0.714-0.201-1.063c-0.104-0.351-0.269-0.665-0.493-0.941
		s-0.523-0.496-0.896-0.66c-0.373-0.165-0.851-0.247-1.434-0.247h-4.569v5.667H24.799z"/>
	<path fill="#0F1317" d="M37.164,77.21h-3.113v-7.863c0-0.657,0.123-1.313,0.369-1.971c0.246-0.657,0.586-1.247,1.02-1.77
		s0.949-0.945,1.547-1.266c0.596-0.321,1.246-0.481,1.948-0.481h9.185V77.21h-3.203v-2.352h-7.752V77.21z M40.323,66.525
		c-0.522,0-0.964,0.083-1.321,0.247c-0.359,0.164-0.661,0.376-0.907,0.638c-0.247,0.262-0.44,0.549-0.583,0.862
		c-0.142,0.314-0.25,0.62-0.325,0.918v3.046h7.706v-5.711H40.323z"/>
	<path fill="#0F1317" d="M54.28,70.49c0,0.838,0.063,1.528,0.19,2.072c0.127,0.546,0.336,0.975,0.627,1.289
		c0.291,0.313,0.673,0.533,1.143,0.66c0.471,0.127,1.057,0.19,1.758,0.19h4.549v-5.511h3.181v8.02H57.08
		c-0.881,0-1.688-0.115-2.419-0.348c-0.731-0.231-1.358-0.612-1.882-1.142c-0.522-0.53-0.934-1.221-1.231-2.072
		c-0.3-0.851-0.448-1.904-0.448-3.159c0-2.075,0.5-3.699,1.501-4.872c1-1.173,2.538-1.758,4.614-1.758h8.49v2.777h-7.707
		c-0.566,0-1.078,0.056-1.533,0.167c-0.456,0.113-0.844,0.315-1.165,0.605c-0.321,0.292-0.571,0.688-0.751,1.188
		C54.37,69.098,54.28,69.729,54.28,70.49"/>
	<polygon fill="#0F1317" points="81.79,66.525 76.75,66.525 76.75,77.21 73.613,77.21 73.613,66.525 68.707,66.525 68.707,63.86 
		81.79,63.86 	"/>
</g>
</svg>
